<svg width="55" height="42" viewBox="0 0 55 42" fill="none" xmlns="http://www.w3.org/2000/svg">
<path d="M44.1842 40.7935L39.7692 31.0604H41.7266L46.124 41.199L46.2545 41.5H46.5827H53H53.7758L53.4553 40.7935L35.3109 0.793452L35.1778 0.5H34.8556H29.383H29.0605L28.9275 0.793759L27.485 3.97945L26.0398 0.793452L25.9067 0.5H25.5845H20.1118H19.7894L19.6563 0.793759L10.6004 20.7938L1.54452 40.7938L1.22473 41.5H2H8.4499H8.77992L8.90965 41.1965L11.1411 35.9768L13.2427 31.0604H15.2229L10.8156 40.7938L10.4959 41.5H11.2711H17.721H18.0511L18.1808 41.1965L22.5139 31.0604H32.4555L36.8528 41.199L36.9834 41.5H37.3116H43.7289H44.5047L44.1842 40.7935ZM22.8491 8.77439L24.0522 11.5607L17.6411 25.7198H15.5614L19.2844 17.0629L22.8491 8.77439ZM39.4374 25.7198H37.3466L30.9229 11.5584L32.1202 8.77439L39.4374 25.7198ZM24.8325 25.7198L27.494 19.5313L30.1663 25.7198H24.8325Z" fill="#1F2937" stroke="black"/>
<rect x="25" y="1" width="5" height="5" fill="#1F2937"/>
<line x1="20" y1="0.5" x2="34" y2="0.5" stroke="black"/>
</svg>
